<svg width="64" height="64" viewBox="0 0 64 64" fill="none" xmlns="http://www.w3.org/2000/svg">
  <path d="M61.5454 44.1952L44.659 27.1851L46.5332 17.9541C47.0168 18.1429 47.5309 18.2416 48.05 18.2453H48.0628C50.4473 18.2735 52.4032 16.3633 52.4314 13.9788C52.4597 11.5943 50.5494 9.6384 48.1649 9.61013C45.7804 9.582 43.8245 11.4921 43.7962 13.8767C43.7902 14.3869 43.8746 14.8941 44.0457 15.3749L34.1257 16.5856L17.9444 0.32C17.7458 0.117467 17.4749 0.00226667 17.1913 0C16.9113 0.00146667 16.6432 0.112933 16.4446 0.3104L13.4196 3.3184C13.0032 3.73493 13.0032 4.41013 13.4196 4.82667L15.0473 6.47787C8.74116 18.0737 10.7894 32.4335 20.0862 41.8037C20.1716 41.8853 20.2705 41.9513 20.3785 41.9989C20.3113 42.3599 20.2762 42.7261 20.274 43.0933V55.4667H7.47396C4.52996 55.4701 2.14409 57.856 2.14062 60.8V62.9333C2.14062 63.5224 2.61823 64 3.20729 64H52.274C52.863 64 53.3406 63.5224 53.3406 62.9333V60.8C53.3372 57.856 50.9513 55.4701 48.0073 55.4667H35.2073V49.9829C37.2125 50.4035 39.2556 50.6179 41.3044 50.6229C46.2206 50.6176 51.0586 49.392 55.3844 47.056L57.0206 48.7019C57.2192 48.9044 57.4901 49.0196 57.7737 49.0219C58.0537 49.0204 58.3218 48.9089 58.5204 48.7115L61.5454 45.7035C61.9618 45.2869 61.9618 44.6117 61.5454 44.1952ZM46.5588 12.4661C47.3941 11.6352 48.7449 11.6389 49.5757 12.4743C50.4066 13.3096 50.4029 14.6604 49.5676 15.4912C49.1677 15.8889 48.6266 16.1121 48.0626 16.112H48.0562C46.8781 16.1059 45.9278 15.1459 45.934 13.9676C45.9369 13.4036 46.163 12.8639 46.5629 12.4661H46.5588ZM44.0478 19.4752L42.851 25.3664L40.5001 23.0016L44.0478 19.4752ZM42.8361 17.6715L38.9961 21.4891L36.0254 18.5024L42.8361 17.6715ZM48.0073 57.6C49.7746 57.6 51.2073 59.0327 51.2073 60.8V61.8667H4.27396V60.8C4.27396 59.0327 5.70663 57.6 7.47396 57.6H48.0073ZM33.074 53.3333V55.4667H22.4073V53.3333H33.074ZM22.4073 51.2V43.0933C22.4073 40.5056 24.7998 38.4 27.7406 38.4C30.6814 38.4 33.074 40.5056 33.074 43.0933V51.2H22.4073ZM35.2073 47.808V43.0933C35.2073 39.3291 31.858 36.2667 27.7406 36.2667C25.0785 36.2259 22.5892 37.5809 21.1785 39.8389C13.063 31.2913 11.2356 18.5485 16.6213 8.06467L53.8249 45.4816C48.0801 48.404 41.4946 49.2268 35.2073 47.808ZM57.7854 46.4405L56.2825 44.9291L17.1806 5.59147L15.6713 4.07893L17.1806 2.57493L33.0505 18.5344C33.058 18.5344 33.0622 18.5483 33.0697 18.5536L59.299 44.9365L57.7854 46.4405Z" fill="#2E2F42" />
  <path d="M27.7496 40.5332H27.74C25.9726 40.5305 24.5378 41.9611 24.5352 43.7284C24.5325 45.4957 25.963 46.9305 27.7304 46.9332H27.74C29.5073 46.9359 30.9421 45.5053 30.9448 43.738C30.9474 41.9707 29.5169 40.5359 27.7496 40.5332ZM28.4962 44.4895C28.2954 44.6892 28.0233 44.8009 27.74 44.7999C27.1509 44.7968 26.6758 44.3168 26.6789 43.7277C26.6804 43.4457 26.7934 43.1759 26.9933 42.9769C27.1918 42.7795 27.46 42.668 27.74 42.6665C28.329 42.6696 28.8041 43.1496 28.801 43.7387C28.7996 44.0207 28.6865 44.2905 28.4866 44.4895H28.4962Z" fill="#4D5AE5" />
</svg>


<svg width="64" height="64" viewBox="0 0 64 64" fill="none" xmlns="http://www.w3.org/2000/svg">
  <path d="M62.5933 30.6025C62.5899 13.6978 48.8828 -0.00341734 31.9775 6.39362e-07C15.0728 0.00341861 1.37158 13.7109 1.375 30.6157C1.37793 43.9316 9.98877 55.7178 22.6738 59.7681C22.7949 59.8062 22.9209 59.8257 23.0474 59.8252C23.2886 59.8247 23.5249 59.7603 23.7324 59.6377C24.0024 59.478 24.2041 59.2241 24.2988 58.9248L32.0288 34.4248C34.1421 34.4141 35.8462 32.6919 35.835 30.5791C35.8242 28.4658 34.1025 26.7617 31.9893 26.7725C31.4209 26.7749 30.8599 26.9058 30.3491 27.1553L20.1372 16.9419C19.6304 16.4526 18.8232 16.4668 18.334 16.9731C17.8564 17.4678 17.8564 18.251 18.334 18.7456L28.5405 28.9639C27.7573 30.5625 28.2051 32.4922 29.6133 33.582L22.248 56.9277C7.69238 51.5659 0.239258 35.4199 5.60108 20.8643C10.9629 6.30859 27.1089 -1.14453 41.6646 4.21729C56.2202 9.5791 63.6733 25.7256 58.3115 40.2808C55.6919 47.3921 50.3096 53.1431 43.3872 56.2275L42.5913 52.479C42.4458 51.79 41.7686 51.3496 41.0796 51.4956C40.8623 51.542 40.6606 51.6441 40.4946 51.792L32.8208 58.6431C32.2944 59.1113 32.2476 59.9175 32.7163 60.4439C32.8687 60.6148 33.064 60.7417 33.2827 60.8115L43.0801 63.9385C43.7505 64.1538 44.4688 63.7852 44.6841 63.1143C44.7524 62.9024 44.7637 62.6768 44.7178 62.459L43.9356 58.7808C55.2642 54.0049 62.6196 42.8965 62.5933 30.6025ZM31.9844 29.3272C32.6885 29.3272 33.2598 29.8984 33.2598 30.6025C33.2598 31.3071 32.6885 31.8779 31.9844 31.8779C31.2798 31.8779 30.709 31.3071 30.709 30.6025C30.709 29.8984 31.2798 29.3272 31.9844 29.3272ZM36.1851 59.0552L40.5532 55.1587L41.7588 60.8394L36.1851 59.0552Z" fill="#2E2F42" />
  <path d="M30.709 6.36914V8.91992C30.709 9.62451 31.2798 10.1953 31.9844 10.1953C32.6885 10.1953 33.2598 9.62451 33.2598 8.91992V6.36914C33.2598 5.66504 32.6885 5.09375 31.9844 5.09375C31.2798 5.09375 30.709 5.66504 30.709 6.36914Z" fill="#4D5AE5" />
  <path d="M7.75195 29.3262C7.04736 29.3262 6.47656 29.8975 6.47656 30.6016C6.47656 31.3062 7.04736 31.877 7.75195 31.877H10.3027C11.0073 31.877 11.5781 31.3062 11.5781 30.6016C11.5781 29.8975 11.0073 29.3262 10.3027 29.3262H7.75195Z" fill="#4D5AE5" />
  <path d="M56.2168 31.877C56.9214 31.877 57.4922 31.3062 57.4922 30.6016C57.4922 29.8975 56.9214 29.3262 56.2168 29.3262H53.666C52.9619 29.3262 52.3906 29.8975 52.3906 30.6016C52.3906 31.3062 52.9619 31.877 53.666 31.877H56.2168Z" fill="#4D5AE5" />
</svg>


<svg width="64" height="64" viewBox="0 0 64 64" fill="none" xmlns="http://www.w3.org/2000/svg">
  <g clip-path="url(#clip0_295_306)">
    <path d="M29.8516 29.9297H31.9838V39.5247H29.8516V29.9297Z" fill="#4D5AE5" />
    <path d="M38.3809 34.1934H40.5131V39.5239H38.3809V34.1934Z" fill="#4D5AE5" />
    <path d="M21.3223 37.3926H23.4545V39.5248H21.3223V37.3926Z" fill="#4D5AE5" />
    <path d="M14.9258 36.3262H17.058V39.5245H14.9258V36.3262Z" fill="#4D5AE5" />
    <path d="M3.19833 56.5817H54.3715C56.1378 56.5817 57.5699 55.1496 57.5699 53.3833V49.1189C57.5699 47.3526 56.1378 45.9206 54.3715 45.9206H53.3054V19.334L59.3611 13.5974C60.7666 14.2903 62.4678 13.8697 63.3876 12.6C64.308 11.3309 64.1789 9.58336 63.0826 8.46311C61.9863 7.34287 60.2424 7.17577 58.953 8.06749C57.6641 8.95973 57.206 10.651 57.8681 12.0716L53.3054 16.397V13.9373C53.3054 12.1711 51.8734 10.739 50.1071 10.739H7.46276C5.6965 10.739 4.26443 12.1711 4.26443 13.9373V45.9206H3.19833C1.43206 45.9206 0 47.3526 0 49.1189V53.3833C0 55.1496 1.43206 56.5817 3.19833 56.5817ZM60.7682 9.6729C61.3569 9.6729 61.8343 10.1503 61.8343 10.739C61.8343 11.3278 61.3569 11.8051 60.7682 11.8051C60.1794 11.8051 59.7021 11.3278 59.7021 10.739C59.7021 10.1503 60.1794 9.6729 60.7682 9.6729ZM6.39665 13.9373C6.39665 13.3486 6.874 12.8712 7.46276 12.8712H50.1071C50.6958 12.8712 51.1732 13.3486 51.1732 13.9373V18.4147L49.041 20.4407V16.0695C49.041 15.4808 48.5636 15.0034 47.9749 15.0034H9.59498C9.00622 15.0034 8.52887 15.4808 8.52887 16.0695V42.7223C8.52887 43.311 9.00622 43.7884 9.59498 43.7884H47.9749C48.5636 43.7884 49.041 43.311 49.041 42.7223V23.3735L51.1732 21.3532V45.9206H6.39665V13.9373ZM15.9916 27.7967C14.5492 27.7926 13.2826 28.7535 12.899 30.144C12.5153 31.5344 13.1093 33.0091 14.3498 33.7452C15.5898 34.4813 17.1697 34.2965 18.2061 33.2933L21.912 35.1528C22.3425 35.3683 22.8646 35.2673 23.1847 34.9076L31.0624 26.0451L38.8062 31.8477C39.2216 32.159 39.8016 32.1257 40.1784 31.7691L46.9088 25.3938V41.6562H10.6611V17.1357H46.9088V22.4563L39.3658 29.5994L31.5569 23.7452C31.1134 23.4131 30.4892 23.4756 30.1207 23.8894L22.1348 32.8748L19.1493 31.3818C19.1712 31.2538 19.1847 31.1247 19.19 30.9951C19.19 29.2288 17.7579 27.7967 15.9916 27.7967ZM17.0577 30.9951C17.0577 31.5838 16.5804 32.0612 15.9916 32.0612C15.4029 32.0612 14.9255 31.5838 14.9255 30.9951C14.9255 30.4063 15.4029 29.929 15.9916 29.929C16.5804 29.929 17.0577 30.4063 17.0577 30.9951ZM23.4544 48.0528H34.1155V49.1189C34.1155 49.7077 33.6381 50.185 33.0494 50.185H24.5205C23.9317 50.185 23.4544 49.7077 23.4544 49.1189V48.0528ZM2.13222 49.1189C2.13222 48.5302 2.60957 48.0528 3.19833 48.0528H21.3222V49.1189C21.3222 50.8852 22.7542 52.3172 24.5205 52.3172H33.0494C34.8156 52.3172 36.2477 50.8852 36.2477 49.1189V48.0528H54.3715C54.9603 48.0528 55.4376 48.5302 55.4376 49.1189V53.3833C55.4376 53.9721 54.9603 54.4495 54.3715 54.4495H3.19833C2.60957 54.4495 2.13222 53.9721 2.13222 53.3833V49.1189Z" fill="#2E2F42" />
  </g>
  <defs>
    <clipPath id="clip0_295_306">
      <rect width="64" height="64" fill="white" />
    </clipPath>
  </defs>
</svg>



<svg width="64" height="64" viewBox="0 0 64 64" fill="none" xmlns="http://www.w3.org/2000/svg">
  <path d="M63.948 9.04861C63.8221 8.66348 63.4893 8.38198 63.0872 8.32323L59.2664 7.76747L57.5565 4.30504C57.1981 3.5754 56.0023 3.5754 55.644 4.30504L53.9341 7.76747L50.1131 8.32335C49.711 8.38198 49.3782 8.66261 49.2512 9.04874C49.1265 9.43487 49.2299 9.85937 49.5211 10.1421L52.287 12.8377L51.6343 16.6436C51.566 17.0436 51.7303 17.4479 52.0578 17.6869C52.3895 17.928 52.8225 17.9577 53.182 17.7679L56.5997 15.9705L60.0174 17.7679C60.1731 17.85 60.3449 17.8905 60.5145 17.8905C60.7353 17.8905 60.9562 17.8222 61.1418 17.6867C61.4703 17.4479 61.6345 17.0435 61.5653 16.6435L60.9125 12.8375L63.6784 10.142C63.9682 9.85825 64.0728 9.43474 63.948 9.04861ZM59.0221 11.7025C58.7715 11.9468 58.6562 12.3009 58.716 12.6465L59.0979 14.8748L57.0969 13.8231C56.9411 13.7409 56.7705 13.7004 56.5997 13.7004C56.4291 13.7004 56.2595 13.7409 56.1026 13.8231L54.1014 14.8748L54.4833 12.6465C54.5431 12.3009 54.4278 11.9479 54.1772 11.7025L52.5569 10.1239L54.7948 9.7985C55.1426 9.74837 55.4423 9.52974 55.5981 9.21499L56.5986 7.18833L57.5991 9.21499C57.7549 9.52962 58.0546 9.74837 58.4024 9.7985L60.6403 10.1239L59.0221 11.7025Z" fill="#4D5AE5" />
  <path d="M52.2662 41.0449H50.1328V43.1783H52.2662V41.0449Z" fill="#4D5AE5" />
  <path d="M52.2662 45.3105H50.1328V47.4439H52.2662V45.3105Z" fill="#4D5AE5" />
  <path d="M54.401 43.1777H52.2676V45.3111H54.401V43.1777Z" fill="#4D5AE5" />
  <path d="M50.1334 43.1777H48V45.3111H50.1334V43.1777Z" fill="#4D5AE5" />
  <path d="M44.7994 52.7773H42.666V54.9107H44.7994V52.7773Z" fill="#4D5AE5" />
  <path d="M44.7994 57.0449H42.666V59.1783H44.7994V57.0449Z" fill="#4D5AE5" />
  <path d="M46.9342 54.9121H44.8008V57.0455H46.9342V54.9121Z" fill="#4D5AE5" />
  <path d="M42.6666 54.9121H40.5332V57.0455H42.6666V54.9121Z" fill="#4D5AE5" />
  <path d="M32.0006 48.5117H29.8672V50.6451H32.0006V48.5117Z" fill="#4D5AE5" />
  <path d="M32.0006 52.7773H29.8672V54.9107H32.0006V52.7773Z" fill="#4D5AE5" />
  <path d="M34.1334 50.6445H32V52.7779H34.1334V50.6445Z" fill="#4D5AE5" />
  <path d="M29.8658 50.6445H27.7324V52.7779H29.8658V50.6445Z" fill="#4D5AE5" />
  <path d="M11.733 12.2441H9.59961V14.3776H11.733V12.2441Z" fill="#4D5AE5" />
  <path d="M11.733 16.5117H9.59961V18.6451H11.733V16.5117Z" fill="#4D5AE5" />
  <path d="M13.8658 14.377H11.7324V16.5104H13.8658V14.377Z" fill="#4D5AE5" />
  <path d="M9.6002 14.377H7.4668V16.5104H9.6002V14.377Z" fill="#4D5AE5" />
  <path d="M49.4295 28.3189C48.8546 27.5434 48.0109 27.0443 47.053 26.9098C46.0908 26.7733 45.1414 27.026 44.3734 27.6138L41.8699 29.5327L41.8688 29.5338L38.0734 32.368L35.3577 31.2863C40.2004 29.1135 43.585 24.2697 43.585 18.6461C43.585 11.0001 37.3396 4.7793 29.6627 4.7793C21.9858 4.7793 15.7405 11.0001 15.7405 18.6461C15.7405 21.4174 16.5692 23.9945 17.9805 26.163L12.4529 26.115C12.4497 26.115 12.4465 26.115 12.4433 26.115C12.4262 26.115 12.4124 26.1235 12.3964 26.1246C12.2908 26.1289 12.1873 26.1503 12.086 26.1865C12.0604 26.1961 12.0338 26.2015 12.0093 26.2131C11.9965 26.2185 11.9837 26.2195 11.9709 26.2259L5.50468 29.4184C5.50356 29.4184 5.50256 29.4184 5.50256 29.4194L1.71575 31.2405C1.67412 31.2586 1.6315 31.2831 1.58987 31.3108C0.0804746 32.3156 -0.433659 34.289 0.393104 35.9018C0.833611 36.7594 1.5835 37.3909 2.50514 37.6799C2.86039 37.7908 3.22302 37.8453 3.58353 37.8453C4.16279 37.8453 4.73667 37.7034 5.26243 37.4229L8.03798 35.9466L12.566 33.6085L15.2797 33.5925L4.39629 44.4237C4.39529 44.4248 4.39417 44.4248 4.39304 44.4258L1.71563 47.0924C1.08312 47.7218 0.73536 48.557 0.73536 49.4477C0.73536 50.3374 1.08312 51.1746 1.71563 51.8051C2.36526 52.4515 3.21965 52.7758 4.07404 52.7758C4.92955 52.7758 5.78281 52.4515 6.43457 51.8051L9.06287 49.1875L12.5445 46.5879L14.3462 48.3821L10.8229 51.8904C10.8219 51.8915 10.8208 51.8915 10.8196 51.8925L8.14223 54.5592C7.50972 55.1886 7.16196 56.0237 7.16196 56.9145C7.16196 57.8041 7.50972 58.6414 8.14223 59.2719C8.79186 59.9183 9.64738 60.2425 10.5018 60.2425C11.3562 60.2425 12.2117 59.9183 12.8623 59.2719L15.5407 56.6052L19.8255 52.3385C19.8267 52.3374 19.8267 52.3364 19.8277 52.3353L21.8469 50.3352L21.8394 50.3277C21.8522 50.315 21.8703 50.3106 21.8832 50.2969L32.2151 38.9804L39.1571 39.9682C39.2072 39.9757 39.2573 39.9788 39.3075 39.9788C39.4366 39.9788 39.5613 39.948 39.6819 39.9021C39.7171 39.8893 39.748 39.8722 39.7811 39.8552C39.8195 39.836 39.86 39.8253 39.8964 39.8008L46.3231 35.5341C46.3466 35.5181 46.3593 35.4925 46.3817 35.4755C46.4073 35.4553 46.4393 35.4468 46.4627 35.4243L49.0056 33.0424C50.3288 31.8026 50.5111 29.7717 49.4295 28.3189ZM4.26079 35.5403C3.91416 35.7259 3.52053 35.7631 3.14402 35.6438C2.77064 35.5275 2.46776 35.2725 2.29063 34.928C1.9685 34.3008 2.15513 33.537 2.71939 33.1242L5.34668 31.8602L5.97919 33.7087L6.24482 34.4853L4.26079 35.5403ZM11.255 31.8848L8.15848 33.4849L7.64759 31.9915L7.28071 30.9183L11.3342 28.9172L11.255 31.8848ZM41.4539 18.644C41.4539 20.4808 41.0155 22.2132 40.256 23.763L31.8932 19.9645C31.8057 18.8179 31.2106 17.8141 30.3167 17.189L33.2447 7.46834C38.0001 8.98099 41.4539 13.4173 41.4539 18.644ZM17.876 18.644C17.876 12.1745 23.1646 6.91045 29.6649 6.91045C30.1706 6.91045 30.6655 6.95308 31.1551 7.01496L28.291 16.5224C28.2527 16.5212 28.2164 16.5106 28.1769 16.5106C26.1118 16.5106 24.4317 18.1853 24.4317 20.244C24.4317 22.3027 26.1118 23.9775 28.1769 23.9775C29.5657 23.9775 30.7657 23.2106 31.4132 22.0883L39.1381 25.5977C36.9887 28.4905 33.5486 30.3776 29.6648 30.3776C23.1646 30.3776 17.876 25.1135 17.876 18.644ZM29.7887 20.244C29.7887 21.1262 29.0654 21.8441 28.1769 21.8441C27.2884 21.8441 26.5651 21.1262 26.5651 20.244C26.5651 19.3619 27.2884 18.644 28.1769 18.644C29.0654 18.644 29.7887 19.3619 29.7887 20.244ZM4.92968 50.2925C4.45717 50.7608 3.69228 50.7598 3.2209 50.2936C2.99365 50.0664 2.86889 49.7667 2.86889 49.4477C2.86889 49.1299 2.99365 48.8301 3.2209 48.6051L5.14505 46.6882L6.84746 48.3832L4.92968 50.2925ZM11.3574 57.7594C10.8849 58.2276 10.119 58.2287 9.6475 57.7605C9.42025 57.5332 9.29549 57.2336 9.29549 56.9146C9.29549 56.5967 9.42025 56.297 9.6475 56.072L11.5729 54.1541L12.3783 54.9552L13.2764 55.8491L11.3574 57.7594ZM18.3208 50.8216C18.3196 50.8226 18.3186 50.8226 18.3175 50.8238L14.7878 54.3438L13.9824 53.5427L13.0843 52.6488L16.6107 49.1384C16.6107 49.1384 16.6107 49.1384 16.6107 49.1374C16.6119 49.1362 16.6129 49.1362 16.614 49.1352C16.694 49.0552 16.7441 48.9592 16.7932 48.8643C16.8071 48.8366 16.8337 48.8131 16.8455 48.7843C16.8786 48.7022 16.8839 48.6137 16.8967 48.5272C16.9031 48.4781 16.9245 48.4323 16.9245 48.3821C16.9245 48.3106 16.8989 48.2413 16.884 48.1708C16.8712 48.1068 16.8712 48.0417 16.8466 47.98C16.8061 47.8797 16.7367 47.7912 16.6642 47.7047C16.644 47.6812 16.6365 47.6513 16.6141 47.629C16.6141 47.629 16.6141 47.629 16.613 47.629C16.6119 47.628 16.6119 47.6257 16.6109 47.6247L13.3969 44.4247C13.3628 44.3905 13.3191 44.3767 13.2807 44.3479C13.2242 44.3042 13.1698 44.2637 13.1068 44.2327C13.0461 44.2028 12.9842 44.1847 12.9202 44.1675C12.8519 44.1483 12.7858 44.1334 12.7143 44.128C12.6492 44.1238 12.5884 44.1302 12.5234 44.1377C12.4519 44.1462 12.3848 44.1558 12.3154 44.1782C12.2482 44.1995 12.1885 44.2325 12.1267 44.2678C12.0872 44.2902 12.0424 44.2977 12.005 44.3254L8.45836 46.9729L6.6567 45.1788L11.4547 40.4065L20.1759 48.9837L18.3208 50.8216ZM31.9584 36.7883C31.9275 36.784 31.8986 36.7958 31.8677 36.7937C31.7898 36.7894 31.7152 36.7948 31.6373 36.8075C31.5766 36.8182 31.519 36.8299 31.4613 36.8502C31.3931 36.8737 31.3312 36.9057 31.2682 36.944C31.2085 36.9803 31.1541 37.0187 31.1018 37.0667C31.0762 37.089 31.0453 37.0998 31.0218 37.1253L21.6253 47.4167L12.9692 38.9034L18.6354 33.2671C19.0525 32.8511 19.0546 32.1758 18.6386 31.7577C18.4285 31.5476 18.1523 31.4441 17.876 31.4452V31.4442L13.4386 31.4708L13.4941 28.2559L19.7022 28.3093C22.2323 30.8971 25.7609 32.511 29.6649 32.511C30.5396 32.511 31.393 32.4203 32.2239 32.2656C32.3039 32.3296 32.3827 32.3947 32.4831 32.4352L37.3024 34.3553L37.6074 35.872L37.9637 37.6427L31.9584 36.7883ZM40.0406 37.1445L39.4145 34.0287L42.3073 31.8687L43.0647 32.8735L44.2007 34.3818L40.0406 37.1445ZM47.5478 31.4826L45.8721 33.0527L44.0097 30.5802L45.6726 29.3055C45.9829 29.0667 46.3745 28.9695 46.7585 29.0197C47.1446 29.074 47.486 29.2757 47.7185 29.5882C48.1516 30.1717 48.078 30.9856 47.5478 31.4826Z" fill="#2E2F42" />
  <path d="M27.204 37.0876L22.918 32.8209C22.5032 32.406 21.8289 32.406 21.4129 32.8209L17.1281 37.0876C16.9276 37.2892 16.8145 37.5601 16.8145 37.8439C16.8145 38.1276 16.9265 38.3996 17.1281 38.6001L21.4129 42.8668C21.6209 43.0737 21.894 43.1772 22.166 43.1772C22.438 43.1772 22.711 43.0737 22.918 42.8668L27.204 38.6001C27.4045 38.3996 27.5186 38.1276 27.5186 37.8439C27.5186 37.5601 27.4055 37.2881 27.204 37.0876ZM22.166 40.6055L19.3926 37.8439L22.166 35.0822L24.9405 37.8439L22.166 40.6055Z" fill="#2E2F42" />
  <path d="M34.3278 10.1406L33.8125 12.2122C33.9544 12.2474 37.2878 13.1157 37.2878 16.5098H39.4212C39.4211 12.4755 36.0899 10.579 34.3278 10.1406Z" fill="#2E2F42" />
  <path d="M39.4225 18.6445H37.2891V20.7779H39.4225V18.6445Z" fill="#2E2F42" />
</svg>



<svg width="16" height="16" viewBox="0 0 16 16" fill="none" xmlns="http://www.w3.org/2000/svg">
  <g clip-path="url(#clip0_349_260)">
    <path d="M15.9836 4.70404C15.9461 3.8539 15.8086 3.26944 15.6117 2.76299C15.4085 2.22541 15.0959 1.74412 14.6864 1.34401C14.2863 0.937683 13.8019 0.621948 13.2705 0.421957C12.7611 0.22502 12.1797 0.0875415 11.3296 0.0500586C10.4731 0.00940124 10.2012 0 8.0289 0C5.8566 0 5.5847 0.00940124 4.73138 0.0468842C3.88124 0.0843671 3.29678 0.221967 2.79045 0.418783C2.25275 0.621948 1.77146 0.934509 1.37136 1.34401C0.965026 1.74412 0.649413 2.22858 0.449301 2.75994C0.252363 3.26944 0.114885 3.85073 0.0774023 4.70087C0.036745 5.55736 0.0273438 5.82926 0.0273438 8.00156C0.0273438 10.1739 0.036745 10.4458 0.0742279 11.2991C0.111711 12.1492 0.249311 12.7337 0.446248 13.2401C0.649413 13.7777 0.965026 14.259 1.37136 14.6591C1.77146 15.0654 2.25593 15.3812 2.78728 15.5812C3.29678 15.7781 3.87807 15.9156 4.72833 15.9531C5.58152 15.9907 5.85355 16 8.02585 16C10.1981 16 10.47 15.9907 11.3234 15.9531C12.1735 15.9156 12.758 15.7781 13.2643 15.5812C14.3396 15.1654 15.1897 14.3153 15.6054 13.2401C15.8023 12.7306 15.9399 12.1492 15.9773 11.2991C16.0148 10.4458 16.0242 10.1739 16.0242 8.00156C16.0242 5.82926 16.0211 5.55736 15.9836 4.70404ZM14.5427 11.2366C14.5083 12.018 14.3771 12.4399 14.2677 12.7212C13.9988 13.4183 13.4456 13.9715 12.7486 14.2403C12.4673 14.3497 12.0423 14.481 11.2639 14.5153C10.42 14.5529 10.1669 14.5622 8.03207 14.5622C5.89726 14.5622 5.64098 14.5529 4.80012 14.5153C4.01872 14.481 3.59676 14.3497 3.31546 14.2403C2.96859 14.1121 2.65285 13.909 2.39658 13.6433C2.1309 13.3838 1.92774 13.0713 1.79954 12.7244C1.69014 12.4431 1.55889 12.018 1.52458 11.2397C1.48698 10.3958 1.4777 10.1426 1.4777 8.00779C1.4777 5.87297 1.48698 5.6167 1.52458 4.77596C1.55889 3.99455 1.69014 3.5726 1.79954 3.29129C1.92774 2.9443 2.1309 2.62869 2.39975 2.37229C2.65908 2.10661 2.97164 1.90345 3.31863 1.77537C3.59994 1.66597 4.02507 1.53472 4.8033 1.50029C5.64721 1.46281 5.90043 1.45341 8.03513 1.45341C10.1731 1.45341 10.4262 1.46281 11.2671 1.50029C12.0485 1.53472 12.4704 1.66597 12.7517 1.77537C13.0986 1.90345 13.4143 2.10661 13.6706 2.37229C13.9363 2.63174 14.1395 2.9443 14.2677 3.29129C14.3771 3.5726 14.5083 3.99761 14.5427 4.77596C14.5802 5.61987 14.5896 5.87297 14.5896 8.00779C14.5896 10.1426 14.5802 10.3927 14.5427 11.2366Z" fill="#F4F4FD" />
    <path d="M8.0301 3.89062C5.76098 3.89062 3.91992 5.73156 3.91992 8.0008C3.91992 10.27 5.76098 12.111 8.0301 12.111C10.2993 12.111 12.1403 10.27 12.1403 8.0008C12.1403 5.73156 10.2993 3.89062 8.0301 3.89062ZM8.0301 10.667C6.55801 10.667 5.36393 9.47301 5.36393 8.0008C5.36393 6.52859 6.55801 5.33463 8.0301 5.33463C9.50231 5.33463 10.6963 6.52859 10.6963 8.0008C10.6963 9.47301 9.50231 10.667 8.0301 10.667Z" fill="#F4F4FD" />
    <path d="M13.263 3.72907C13.263 4.25896 12.8333 4.68861 12.3033 4.68861C11.7734 4.68861 11.3438 4.25896 11.3438 3.72907C11.3438 3.19906 11.7734 2.76953 12.3033 2.76953C12.8333 2.76953 13.263 3.19906 13.263 3.72907Z" fill="#F4F4FD" />
  </g>
  <defs>
    <clipPath id="clip0_349_260">
      <rect width="16" height="16" fill="white" />
    </clipPath>
  </defs>
</svg>



<svg width="16" height="16" viewBox="0 0 16 16" fill="none" xmlns="http://www.w3.org/2000/svg">
  <path d="M16 3.039C15.405 3.3 14.771 3.473 14.11 3.557C14.79 3.151 15.309 2.513 15.553 1.744C14.919 2.122 14.219 2.389 13.473 2.538C12.871 1.897 12.013 1.5 11.077 1.5C9.261 1.5 7.799 2.974 7.799 4.781C7.799 5.041 7.821 5.291 7.875 5.529C5.148 5.396 2.735 4.089 1.114 2.098C0.831 2.589 0.665 3.151 0.665 3.756C0.665 4.892 1.25 5.899 2.122 6.482C1.595 6.472 1.078 6.319 0.64 6.078C0.64 6.088 0.64 6.101 0.64 6.114C0.64 7.708 1.777 9.032 3.268 9.337C3.001 9.41 2.71 9.445 2.408 9.445C2.198 9.445 1.986 9.433 1.787 9.389C2.212 10.688 3.418 11.643 4.852 11.674C3.736 12.547 2.319 13.073 0.785 13.073C0.516 13.073 0.258 13.061 0 13.028C1.453 13.965 3.175 14.5 5.032 14.5C11.068 14.5 14.368 9.5 14.368 5.166C14.368 5.021 14.363 4.881 14.356 4.742C15.007 4.28 15.554 3.703 16 3.039Z" fill="#F4F4FD" />
</svg>



<svg width="16" height="16" viewBox="0 0 16 16" fill="none" xmlns="http://www.w3.org/2000/svg">
  <path d="M10.665 2.65667H12.1257V0.112667C11.8737 0.078 11.007 0 9.99767 0C7.89167 0 6.449 1.32467 6.449 3.75933V6H4.125V8.844H6.449V16H9.29833V8.84467H11.5283L11.8823 6.00067H9.29767V4.04133C9.29833 3.21933 9.51967 2.65667 10.665 2.65667Z" fill="#F4F4FD" />
</svg>



<svg width="16" height="16" viewBox="0 0 16 16" fill="none" xmlns="http://www.w3.org/2000/svg">
  <g clip-path="url(#clip0_349_276)">
    <path d="M15.9968 16.0014V16.0008H16.0008V10.1328C16.0008 7.26211 15.3828 5.05078 12.0268 5.05078C10.4135 5.05078 9.33083 5.93611 8.88883 6.77545H8.84216V5.31878H5.66016V16.0008H8.97349V10.7114C8.97349 9.31878 9.23749 7.97211 10.9622 7.97211C12.6615 7.97211 12.6868 9.56145 12.6868 10.8008V16.0014H15.9968Z" fill="#F4F4FD" />
    <path d="M0.263672 5.31641H3.58101V15.9984H0.263672V5.31641Z" fill="#F4F4FD" />
    <path d="M1.92133 0C0.860667 0 0 0.860667 0 1.92133C0 2.982 0.860667 3.86067 1.92133 3.86067C2.982 3.86067 3.84267 2.982 3.84267 1.92133C3.842 0.860667 2.98133 0 1.92133 0V0Z" fill="#F4F4FD" />
  </g>
  <defs>
    <clipPath id="clip0_349_276">
      <rect width="16" height="16" fill="white" />
    </clipPath>
  </defs>
</svg>